<?xml version="1.0" standalone="no"?>
<!DOCTYPE svg PUBLIC "-//W3C//DTD SVG 20010904//EN"
 "http://www.w3.org/TR/2001/REC-SVG-20010904/DTD/svg10.dtd">
<svg version="1.0" xmlns="http://www.w3.org/2000/svg"
 width="700.000000pt" height="700.000000pt" viewBox="0 0 700.000000 700.000000"
 preserveAspectRatio="xMidYMid meet">
<metadata>
Created by potrace 1.14, written by Peter Selinger 2001-2017
</metadata>
<g transform="translate(0.000000,700.000000) scale(0.100000,-0.100000)"
fill="#000000" stroke="none">
<path d="M3279 6720 c-632 -44 -1208 -259 -1713 -639 -416 -313 -717 -674
-950 -1140 -233 -464 -336 -905 -336 -1437 0 -536 104 -979 340 -1442 501
-987 1414 -1629 2505 -1763 163 -21 625 -18 785 4 391 54 688 145 1031 317
943 472 1593 1370 1750 2420 30 195 37 600 15 810 -28 267 -89 524 -182 780
-48 131 -209 452 -291 583 -521 830 -1393 1382 -2353 1491 -175 20 -442 27
-601 16z m11 -1129 l0 -328 -77 -12 c-668 -104 -1216 -571 -1421 -1213 -17
-52 -38 -138 -47 -189 -9 -52 -18 -104 -21 -116 l-4 -23 -320 0 c-298 0 -320
1 -320 18 0 45 41 288 64 378 77 305 222 603 419 864 89 117 272 308 392 408
294 247 708 440 1093 511 144 27 151 28 200 30 l42 1 0 -329z m642 298 c470
-78 949 -333 1288 -685 341 -355 582 -828 659 -1294 11 -69 21 -141 23 -160
l3 -35 -332 -3 -331 -2 -6 27 c-3 16 -8 48 -11 73 -46 322 -235 684 -496 951
-237 242 -565 414 -916 482 l-113 22 0 328 0 328 58 -6 c31 -3 110 -15 174
-26z m-642 -1749 l0 -420 -430 0 -430 0 6 28 c85 370 352 661 714 777 47 15
90 28 95 30 6 2 18 4 28 4 16 1 17 -25 17 -419z m510 401 c372 -106 655 -408
744 -793 l6 -28 -425 0 -425 0 0 420 c0 479 -11 433 100 401z m-2052 -1368
c96 -538 456 -1008 958 -1253 170 -83 324 -129 552 -166 l32 -5 0 -324 c0
-303 -1 -325 -17 -325 -10 0 -78 9 -151 20 -508 74 -984 320 -1357 698 -123
126 -191 209 -287 352 -94 141 -227 414 -282 582 -43 129 -97 366 -111 491
l-6 57 323 0 323 0 23 -127z m1542 -303 c0 -341 -3 -430 -13 -430 -32 0 -170
45 -244 80 -119 56 -219 129 -320 233 -100 105 -148 173 -203 290 -32 68 -80
218 -80 249 0 4 194 8 430 8 l430 0 0 -430z m1260 421 c0 -25 -55 -193 -84
-256 -68 -147 -190 -298 -318 -396 -92 -69 -249 -148 -348 -173 -36 -10 -73
-20 -82 -22 -17 -5 -18 20 -18 425 l0 431 425 0 c241 0 425 -4 425 -9z m1344
-33 c-50 -357 -118 -579 -259 -857 -244 -481 -643 -855 -1170 -1098 -179 -82
-431 -156 -620 -182 -44 -6 -95 -14 -112 -17 l-33 -5 0 325 0 325 38 6 c111
19 301 71 402 111 240 96 427 221 612 412 244 251 408 566 470 902 l22 120
328 0 328 0 -6 -42z"/>
</g>
</svg>
